<svg xmlns="http://www.w3.org/2000/svg" viewBox="0 0 64 62.74"><defs><style>.cls-1{fill:#fff;}</style></defs><g id="Layer_2" data-name="Layer 2"><g id="Layer_1-2" data-name="Layer 1"><g id="Layer_2-2" data-name="Layer 2"><g id="Layer_1-2-2" data-name="Layer 1-2"><path class="cls-1" d="M50.09,62.74a41.79,41.79,0,0,1-17.3-4A57.3,57.3,0,0,1,4,30.64C.78,24.57-2.33,12.19,2.49,3.25A5.86,5.86,0,0,1,7.41.34L16.86,0a6.7,6.7,0,0,1,6.86,6.71A33.21,33.21,0,0,0,25,17.41a7.47,7.47,0,0,1-2.74,7.53,24.46,24.46,0,0,0-3.85,4.45A33.32,33.32,0,0,0,33.87,44a24.42,24.42,0,0,0,4.53-3.3,8,8,0,0,1,7.69-2.17A38,38,0,0,0,57.3,40.32h.34A6.52,6.52,0,0,1,64,47l-.84,9.15A5.59,5.59,0,0,1,59.89,61,25.85,25.85,0,0,1,50.09,62.74ZM17.15,3.44l-9.64.35A2.39,2.39,0,0,0,5.48,5c-4.1,7.62-1.2,18.86,1.6,24.14A54,54,0,0,0,34.23,55.63c6.63,3.17,17,5.19,24.28,2.19a2.17,2.17,0,0,0,1.22-1.9l.83-9.14a3.05,3.05,0,0,0-3-3L57.31,42v1.72a41.11,41.11,0,0,1-12.15-1.9,4.58,4.58,0,0,0-4.34,1.3,27.88,27.88,0,0,1-6.06,4.3l-.73.38-.75-.32A36.92,36.92,0,0,1,14.86,30.05l-.42-.85.51-.82a28.36,28.36,0,0,1,5.1-6.09,4.12,4.12,0,0,0,1.6-4.07A36.2,36.2,0,0,1,20.27,6.61,3.17,3.17,0,0,0,17.15,3.44Z"/></g></g></g></g></svg>