<svg xmlns="http://www.w3.org/2000/svg" viewBox="0 0 48.84 64"><defs><style>.cls-1{fill:#fff;}</style></defs><g id="Layer_2" data-name="Layer 2"><g id="Layer_1-2" data-name="Layer 1"><g id="Layer_2-2" data-name="Layer 2"><g id="Layer_1-2-2" data-name="Layer 1-2"><path class="cls-1" d="M24.42,28.66A14.33,14.33,0,1,1,38.75,14.33,14.35,14.35,0,0,1,24.42,28.66Zm0-25.18A10.85,10.85,0,1,0,35.27,14.33,10.86,10.86,0,0,0,24.42,3.48Z"/><path class="cls-1" d="M24.42,64C10.73,64,0,57.14,0,48.38S10.73,32.77,24.42,32.77s24.42,6.86,24.42,15.61S38.11,64,24.42,64Zm0-27.76c-11.35,0-20.94,5.56-20.94,12.14s9.59,12.14,20.94,12.14S45.36,55,45.36,48.38,35.77,36.24,24.42,36.24Z"/></g></g></g></g></svg>