<svg xmlns="http://www.w3.org/2000/svg" viewBox="0 0 54.73 64"><defs><style>.cls-1{fill:#fff;}</style></defs><g id="Layer_2" data-name="Layer 2"><g id="Layer_1-2" data-name="Layer 1"><g id="Layer_2-2" data-name="Layer 2"><g id="Layer_1-2-2" data-name="Layer 1-2"><path class="cls-1" d="M47,64H7.75A7.76,7.76,0,0,1,0,56.25V7.75A7.76,7.76,0,0,1,7.75,0H39a1.8,1.8,0,0,1,1.27.53l14,14a1.81,1.81,0,0,1,.53,1.28V56.25A7.76,7.76,0,0,1,47,64ZM7.75,3.61A4.14,4.14,0,0,0,3.61,7.75v48.5a4.14,4.14,0,0,0,4.14,4.14H47a4.14,4.14,0,0,0,4.15-4.14V16.5L38.23,3.61Z"/><path class="cls-1" d="M25,45.43H15.76a1.81,1.81,0,1,1,0-3.61H25a1.81,1.81,0,1,1,0,3.61Z"/><path class="cls-1" d="M39,36.13H15.76a1.81,1.81,0,1,1,0-3.61H39a1.81,1.81,0,0,1,0,3.61Z"/><path class="cls-1" d="M39,26.83H15.76a1.81,1.81,0,1,1,0-3.61H39a1.81,1.81,0,0,1,0,3.61Z"/><path class="cls-1" d="M52.93,17.56H39a1.81,1.81,0,0,1-1.81-1.8V1.8a1.81,1.81,0,0,1,3.61,0V14H52.93a1.81,1.81,0,0,1,0,3.61Z"/></g></g></g></g></svg>