<svg xmlns="http://www.w3.org/2000/svg" viewBox="0 0 50.07 64"><defs><style>.cls-1{fill:#fff;}</style></defs><g id="Layer_2" data-name="Layer 2"><g id="Layer_1-2" data-name="Layer 1"><g id="Layer_2-2" data-name="Layer 2"><g id="Layer_1-2-2" data-name="Layer 1-2"><path class="cls-1" d="M25,64h0a1.79,1.79,0,0,1-1.3-.56C22.75,62.41,0,38.12,0,25A25.36,25.36,0,0,1,25,0h.07a25.35,25.35,0,0,1,25,25c0,13.14-22.79,37.43-23.76,38.46A1.76,1.76,0,0,1,25,64ZM25,3.56A21.81,21.81,0,0,0,3.56,25.05C3.56,34.12,18,51.88,25,59.59,32,51.88,46.5,34.11,46.5,25A21.78,21.78,0,0,0,25,3.56Z"/><path class="cls-1" d="M25,38.42A13.46,13.46,0,0,1,11.58,25,13.4,13.4,0,0,1,24.94,11.58H25a13.42,13.42,0,1,1,0,26.84Zm-.08-23.28A9.85,9.85,0,0,0,15.14,25,9.88,9.88,0,1,0,25,15.14Z"/></g></g></g></g></svg>