<svg xmlns="http://www.w3.org/2000/svg" viewBox="0 0 64 44.89"><defs><style>.cls-1{fill:#fff;}</style></defs><g id="Layer_2" data-name="Layer 2"><g id="Layer_1-2" data-name="Layer 1"><g id="Layer_2-2" data-name="Layer 2"><g id="Layer_1-2-2" data-name="Layer 1-2"><path class="cls-1" d="M32.05,44.89C14.69,44.89,1.15,24.23.58,23.35L0,22.45l.58-.91C1.14,20.66,14.59,0,32,0s30.9,20.66,31.47,21.54l.58.9-.58.9C62.86,24.22,49.41,44.89,32.05,44.89ZM4,22.44c2.77,3.9,14.43,19.12,28.05,19.12S57.26,26.35,60,22.45C57.24,18.55,45.57,3.33,32,3.33S6.75,18.54,4,22.44Z"/><path class="cls-1" d="M32,35.63A13.22,13.22,0,1,1,45.24,22.41,13.23,13.23,0,0,1,32,35.63Zm0-23.11a9.89,9.89,0,1,0,9.89,9.89A9.9,9.9,0,0,0,32,12.52Z"/></g></g></g></g></svg>