<svg xmlns="http://www.w3.org/2000/svg" viewBox="0 0 62.11 64"><defs><style>.cls-1{fill:#fff;}</style></defs><g id="Layer_2" data-name="Layer 2"><g id="Layer_1-2" data-name="Layer 1"><g id="Layer_2-2" data-name="Layer 2"><g id="Layer_1-2-2" data-name="Layer 1-2"><path class="cls-1" d="M39.19,64c-9.23,0-19.14-2.21-22-3.38a3.58,3.58,0,0,1-.48-.29,7.75,7.75,0,0,1-1.78.45l-9,1.14a4.33,4.33,0,0,1-4.8-3.47A64.69,64.69,0,0,1,0,46,75.4,75.4,0,0,1,1.21,32.63a4.3,4.3,0,0,1,4.5-3.53l9.77.53.46.05a15.81,15.81,0,0,1,1.74-2.61L19,25.86l.29-.53,1.44-1.91a45.27,45.27,0,0,0,3.82-5.89l.14-.28a3.46,3.46,0,0,1,.42-.94l3.18-7.85v-2a6.21,6.21,0,0,1,1.4-4.48l.26-.25a7.5,7.5,0,0,1,10.5,1,8.89,8.89,0,0,1,2.69,6.05,18.11,18.11,0,0,1-.53,7.1l-.23,3.44-.67,3.05c1.24-.27,2.48-.48,3.72-.66h8a9.16,9.16,0,0,1,8.71,8.87,9,9,0,0,1-.49,3,8.74,8.74,0,0,1,.06,4.73A8.91,8.91,0,0,1,60,43.1a9.1,9.1,0,0,1,.32,2.49,9.73,9.73,0,0,1-2.85,6.89v.31a8.66,8.66,0,0,1-3.69,7.91C50.36,63.16,44.91,64,39.19,64ZM17.77,55.56l.89,1.79c4.34,1.79,25.83,5.65,33,.46a5.1,5.1,0,0,0,2.22-4.89V50.85l.64-.53a6.11,6.11,0,0,0,2.21-4.73,5.71,5.71,0,0,0-.41-2.21l-.41-1.05.77-.82a5.33,5.33,0,0,0,1.44-3.59l.08-.49a5.17,5.17,0,0,0-.13-3.34l-.27-.69.3-.67a5.31,5.31,0,0,0,.45-2.15,5.57,5.57,0,0,0-5.25-5.35H45.66c-1.6.24-3.47.61-5.3,1.08l-2,.52-.23-2a5.24,5.24,0,0,1,0-1.37l0-2.21,1-6.12A15.14,15.14,0,0,0,39.57,9a5.45,5.45,0,0,0-1.68-3.82l-.12-.13,1.35-1.16L37.76,5.08a3.94,3.94,0,0,0-2.7-1.49,3.85,3.85,0,0,0-2.73.75,2.78,2.78,0,0,0-.5,1.9V8.3a2.8,2.8,0,0,1-.05,1l-2.23,5.58v.51l-1.39,2.69v.42l-.19.07-.22.43a42.69,42.69,0,0,1-3.84,6v.07l-2.09,2.94-1.57,1.43a13,13,0,0,0-1.69,2.93l-.68,1.64-1.64-.67a3.64,3.64,0,0,0-1-.23l-9.73-.53a.84.84,0,0,0-.79.61A72,72,0,0,0,3.57,46.05,60.75,60.75,0,0,0,4.65,57.78a.72.72,0,0,0,.83.6l9-1.15a3.68,3.68,0,0,0,1.61-.58Z"/></g></g></g></g></svg>