<svg xmlns="http://www.w3.org/2000/svg" viewBox="0 0 14.55 18.46"><defs><style>.cls-1{fill:none;stroke:#fff;stroke-linecap:round;stroke-linejoin:round;stroke-width:1.5px;}</style></defs><title>Asset 2</title><g id="Layer_2" data-name="Layer 2"><g id="Layer_1-2" data-name="Layer 1"><path class="cls-1" d="M7.27.75A6.64,6.64,0,0,1,13.8,7.27c0,3.52-6.53,10.44-6.53,10.44S.75,10.79.75,7.27A6.64,6.64,0,0,1,7.27.75Z"/><path class="cls-1" d="M7.27,4h0a3.27,3.27,0,0,1,3.27,3.26h0a3.28,3.28,0,0,1-3.27,3.27h0A3.27,3.27,0,0,1,4,7.27H4A3.26,3.26,0,0,1,7.27,4Z"/></g></g></svg>