<svg xmlns="http://www.w3.org/2000/svg" viewBox="0 0 17.59 17.2"><defs><style>.cls-1{fill:#fff;}</style></defs><title>Asset 6</title><g id="Layer_2" data-name="Layer 2"><g id="Layer_1-2" data-name="Layer 1"><path class="cls-1" d="M16.14,11.7a11.45,11.45,0,0,1-3.38-.53,1.83,1.83,0,0,0-1.77.51,7.57,7.57,0,0,1-1.63,1.15A10.17,10.17,0,0,1,4.27,8,7.73,7.73,0,0,1,5.66,6.34a1.67,1.67,0,0,0,.62-1.65,10.14,10.14,0,0,1-.39-3.25A1.42,1.42,0,0,0,4.42,0L1.67.1a1.2,1.2,0,0,0-1,.58C-.58,3,.16,6.37,1.12,8.18c0,0,0,0,0,0A16.14,16.14,0,0,0,9.24,16.1h0c1.92.92,5.1,1.61,7.44.64a1.13,1.13,0,0,0,.66-1l.24-2.62A1.39,1.39,0,0,0,16.14,11.7Z"/></g></g></svg>