<svg xmlns="http://www.w3.org/2000/svg" viewBox="0 0 17.76 18.46"><defs><style>.cls-1{fill:none;stroke:#fff;stroke-width:1.5px;}</style></defs><title>Asset 4</title><g id="Layer_2" data-name="Layer 2"><g id="Layer_1-2" data-name="Layer 1"><path class="cls-1" d="M11.18,1.38a2,2,0,0,1,.62,1.37,4.71,4.71,0,0,1-.15,1.9l0,.11,0,.11v0l0,.11,0,.11,0,.11,0,.16-.05.21-.05.15-.15.57,0,.13,0,.12,0,.08v0l0,.07V6.9a1.16,1.16,0,0,0,0,.27,14.16,14.16,0,0,1,1.61-.32h.1l.1,0,.36,0h1.32l.16,0h.13a2.07,2.07,0,0,1,1.94,2,2,2,0,0,1-.17.8A1.93,1.93,0,0,1,17,10.91a2,2,0,0,1-.54,1.34,2.15,2.15,0,0,1,.15.8,2.22,2.22,0,0,1-.8,1.71c0,.05,0,.1,0,.15v.16c.29,4.13-9.09,2.34-10.59,1.73A.54.54,0,0,1,5,16.57a1.55,1.55,0,0,1-.66.24l-2.52.32a.71.71,0,0,1-.79-.57,17.56,17.56,0,0,1-.31-3.38,20.7,20.7,0,0,1,.33-3.67.71.71,0,0,1,.74-.58l2.74.15a1.43,1.43,0,0,1,.43.1,4,4,0,0,1,.6-1L6,7.78,6,7.7l.1-.12.07-.08.07-.07.06-.08.06-.07.06-.07,0,0,0-.07,0,0L6.61,7a7.69,7.69,0,0,0,.94-1.61l.06-.12c0-.07.07-.16.11-.24l.06-.13.06-.14.06-.14L8,4.46,8,4.3l.07-.16L8.17,4l.07-.17.11-.28.08-.19L8.55,3l.09-.22a.27.27,0,0,0,0-.13V2.5l0-.12v-.3a1.28,1.28,0,0,1,.28-.94A1.6,1.6,0,0,1,11.18,1.38Z"/></g></g></svg>