<svg id="Layer_1" data-name="Layer 1" xmlns="http://www.w3.org/2000/svg" viewBox="0 0 100 100"><defs><style>.cls-1{fill-rule:evenodd;}</style></defs><path class="cls-1" d="M63.71812,36.38732a10.01822,10.01822,0,1,0,0-14.168,10.01818,10.01818,0,0,0,0,14.168Zm3.542-3.542a5.0091,5.0091,0,1,0,0-7.084,5.009,5.009,0,0,0,0,7.084Z"/><path d="M53.3878,63.16532a2.64084,2.64084,0,0,0,3.24591,1.55784A2.39606,2.39606,0,0,0,58.149,61.57793,33.93579,33.93579,0,0,0,38.5267,41.95566a2.39614,2.39614,0,0,0-3.14493,1.51526,2.64077,2.64077,0,0,0,1.55769,3.24592A28.87464,28.87464,0,0,1,53.38779,63.16532Z"/><path class="cls-1" d="M71.1081,6.80449A70.17344,70.17344,0,0,1,88.2293,5.29058a6.76015,6.76015,0,0,1,6.5855,6.58581A70.1695,70.1695,0,0,1,93.301,28.99744c-1.51175,6.7735-4.45162,14.13637-10.10192,19.78667l-.1117.1117c-4.56682,4.56683-8.15387,8.15386-11.11977,10.72205l1.19066,10.71653a5.0078,5.0078,0,0,1-1.43611,4.095L61.09082,85.06022a5.009,5.009,0,0,1-8.19293-1.68156L47.97341,71.06722,32.1687,73.701a5.009,5.009,0,0,1-5.76446-5.76451l2.63416-15.8048L16.72675,47.20723a5.00919,5.00919,0,0,1-1.68166-8.19293l10.631-10.63088a5.00921,5.00921,0,0,1,4.09516-1.43652l10.716,1.19072c2.56869-2.966,6.15522-6.55275,10.72255-11.12l.1112-.11135c5.6503-5.6503,13.01372-8.58991,19.78707-10.10177Zm1.091,4.88887c-6.2509,1.39524-12.60147,4.02047-17.3361,8.7549-5.25158,5.25168-8.96284,8.967-11.39127,11.91773l-.86207,1.04736L29.21809,31.92543l-10.631,10.63083,12.31164,4.925a5.00872,5.00872,0,0,1,3.08062,5.474L31.34522,68.76l15.8047-2.63379a5.00832,5.00832,0,0,1,5.47448,3.08061l4.92448,12.31144L68.17976,70.88741,66.69205,57.496l1.0474-.86207c2.95088-2.42893,6.66615-6.14019,11.91773-11.39176,4.73463-4.73413,7.35991-11.08491,8.755-17.33595A65.21031,65.21031,0,0,0,89.80868,12.038a1.7535,1.7535,0,0,0-1.74118-1.74088,65.17467,65.17467,0,0,0-15.86842,1.39625Z"/><path class="cls-1" d="M31.33419,93.35335a2.50454,2.50454,0,0,1,0-3.54195L41.96,79.18553a2.50454,2.50454,0,0,1,3.542,3.542L34.8762,93.35335a2.50425,2.50425,0,0,1-3.542,0Z"/><path class="cls-1" d="M6.54045,68.55965a2.50454,2.50454,0,0,1,0-3.54195l10.626-10.62587a2.50456,2.50456,0,0,1,3.542,3.542l-10.626,10.62586a2.50425,2.50425,0,0,1-3.542,0Z"/><path class="cls-1" d="M11.844,88.03115a2.50454,2.50454,0,0,1,0-3.54195L22.47,73.86333a2.50456,2.50456,0,0,1,3.542,3.542L15.386,88.03115A2.50425,2.50425,0,0,1,11.844,88.03115Z"/></svg>