<svg id="Layer_1" data-name="Layer 1" xmlns="http://www.w3.org/2000/svg" viewBox="0 0 100 100"><path id="Target" d="M73.3888,52.41321a23.59151,23.59151,0,0,1-20.92733,21.0335.81084.81084,0,0,0-.82049.80107q-.00012.0097,0,.01942V91.82569a1.641,1.641,0,0,1-3.282,0V85.45483a.88805.88805,0,0,0-.82049-.82049,34.59573,34.59573,0,0,1-30.889-26.57423,1.641,1.641,0,0,1,3.14784-.92866q.01581.0536.02794.10818A31.198,31.198,0,0,0,47.43235,81.2462c.21236.10618.41507,0,.61778-.20271a.61778.61778,0,0,0,.30889-.61778V74.2672a.81084.81084,0,0,0-.80107-.82049q-.00971-.00012-.01942,0a23.88108,23.88108,0,0,1-14.151-6.757,23.63012,23.63012,0,0,1-6.757-14.26687.8591.8591,0,0,0-.82049-.724H8.25154a1.68925,1.68925,0,1,1,0-3.37849h6.6701a.86875.86875,0,0,0,.82049-.724A34.97216,34.97216,0,0,1,41.38,15.9738a1.6989,1.6989,0,0,1,.82049,3.29161A31.31377,31.31377,0,0,0,19.111,47.38409a.79154.79154,0,0,0,.82049.96528h5.84a.8591.8591,0,0,0,.82049-.724A23.5915,23.5915,0,0,1,47.53853,26.55329a.81084.81084,0,0,0,.82049-.80107q.00012-.00971,0-.01942V8.17431a1.641,1.641,0,1,1,3.282,0V28.08809a1.66994,1.66994,0,0,1-1.589,1.74716q-.07905.00375-.15819,0c-17.84807,0-26.76728,21.854-14.151,34.47989S69.89447,67.906,70.20336,50a1.62168,1.62168,0,0,1,1.60214-1.641q.01941-.00023.03884,0H91.74846a1.68925,1.68925,0,1,1,0,3.37849H85.18454a.79153.79153,0,0,0-.82049.724A34.88532,34.88532,0,0,1,58.00219,83.78489a1.68049,1.68049,0,0,1-.724-3.282,31.37168,31.37168,0,0,0,23.69768-27.887.79153.79153,0,0,0-.82049-.96529H74.20928a.85909.85909,0,0,0-.82048.724ZM86.68073,25.115,74.81741,36.91077a1.62166,1.62166,0,0,1-1.11973.52125H65.792a1.38043,1.38043,0,0,0-.60812.20271L51.12938,51.79543a1.66994,1.66994,0,0,1-2.36494-2.35529L62.819,35.26979a.55986.55986,0,0,0,.30889-.5116v-7.925a1.68924,1.68924,0,0,1,.5116-1.22591L75.43519,13.82122A1.66994,1.66994,0,0,1,78.331,14.9506V21.418a.87841.87841,0,0,0,.82049.82049h6.3612a1.68925,1.68925,0,0,1,1.22591,2.89585ZM73.16678,33.80256l6.87281-6.87281a.83014.83014,0,0,0-.5116-1.43827H76.63215a1.70853,1.70853,0,0,1-1.74716-1.641v-2.809a.84945.84945,0,0,0-1.43827-.60813l-6.757,6.87281a.90741.90741,0,0,0-.30889.61778v5.338a.81083.81083,0,0,0,.80107.82049q.0097.00012.01942,0h5.43454c.21236,0,.41507,0,.5116-.21236Zm-9.2281,16.21675a13.94833,13.94833,0,1,1-13.96762-13.929q.01447,0,.02894,0a1.65063,1.65063,0,0,1,0,3.29161,10.61811,10.61811,0,0,0,0,21.23622h0c6.1585,0,10.261-4.614,10.56019-10.61811a1.6989,1.6989,0,1,1,3.38814.09653Z"/></svg>