<svg id="Layer_1" data-name="Layer 1" xmlns="http://www.w3.org/2000/svg" viewBox="0 0 100 100"><path d="M90.07421,48.76113A56.599,56.599,0,0,0,50.42587,32.21605c-.14146-.003-.28291-.005-.42586-.005-.14146,0-.28391.002-.42537.005A56.59435,56.59435,0,0,0,9.9273,48.76113a1.39731,1.39731,0,0,0-.1221.10969,1.60213,1.60213,0,0,0,0,2.25836,1.40388,1.40388,0,0,0,.1221.11019A56.48461,56.48461,0,0,0,28.60913,63.62163,56.62607,56.62607,0,0,0,49.57464,67.784c.14146.00348.28391.005.42537.005s.2844-.00149.42586-.005a56.63,56.63,0,0,0,20.96551-4.16232,56.48486,56.48486,0,0,0,18.7275-12.42842,1.594,1.594,0,0,0-.04467-2.43208ZM13.21159,50a53.19881,53.19881,0,0,1,25.0117-13.31935,17.75986,17.75986,0,0,0,0,26.6387A53.19439,53.19439,0,0,1,13.21159,50Zm22.17609,0A14.61233,14.61233,0,1,1,50,64.61233,14.62873,14.62873,0,0,1,35.38768,50ZM61.77723,63.31935a17.76083,17.76083,0,0,0,0-26.6387A53.19717,53.19717,0,0,1,86.78842,50,53.19275,53.19275,0,0,1,61.77723,63.31935Z"/><path d="M50,57.94148A7.94148,7.94148,0,1,1,57.94149,50,7.95043,7.95043,0,0,1,50,57.94148Zm0-12.70637A4.76489,4.76489,0,1,0,54.7649,50,4.77026,4.77026,0,0,0,50,45.23511Z"/><path d="M10.92792,36.34065a1.58817,1.58817,0,0,1-1.58829-1.58829V10.92791a1.58849,1.58849,0,0,1,1.58829-1.58829H34.75237a1.5883,1.5883,0,0,1,0,3.17659H12.51622V34.75236A1.58785,1.58785,0,0,1,10.92792,36.34065Z"/><path d="M34.75237,90.66038H10.92792a1.58817,1.58817,0,0,1-1.58829-1.58829V65.24764a1.5883,1.5883,0,0,1,3.17659,0V87.48379H34.75237a1.5883,1.5883,0,0,1,0,3.17659Z"/><path d="M88.91327,90.66038H65.08882a1.5883,1.5883,0,0,1,0-3.17659H87.325V65.24764a1.5883,1.5883,0,0,1,3.17659,0V89.07209A1.58785,1.58785,0,0,1,88.91327,90.66038Z"/><path d="M89.06217,36.34065a1.58817,1.58817,0,0,1-1.5883-1.58829V12.51621H70.79676a1.5883,1.5883,0,0,1,0-3.17659H89.06217a1.58882,1.58882,0,0,1,1.5883,1.58829V34.75236A1.58849,1.58849,0,0,1,89.06217,36.34065Z"/><path d="M65.24021,12.51621a1.5883,1.5883,0,0,1-.001-3.17659h.001a1.5883,1.5883,0,0,1,0,3.17659Z"/></svg>